<svg width="19" height="16" fill="none" xmlns="http://www.w3.org/2000/svg"><path d="M19 1.894a7.59 7.59 0 01-2.239.636A4.033 4.033 0 0018.474.295a7.641 7.641 0 01-2.475.98A3.825 3.825 0 0013.154 0c-2.152 0-3.898 1.808-3.898 4.038 0 .317.034.626.101.921-3.24-.169-6.111-1.776-8.034-4.22a4.127 4.127 0 00-.528 2.03c0 1.401.688 2.638 1.734 3.362a3.77 3.77 0 01-1.766-.505v.051c0 1.957 1.344 3.59 3.126 3.96a3.787 3.787 0 01-1.76.07c.497 1.605 1.937 2.772 3.642 2.806A7.658 7.658 0 010 14.185 10.76 10.76 0 005.975 16c7.17 0 11.09-6.155 11.09-11.493 0-.175 0-.35-.012-.523A8.118 8.118 0 0019 1.894z" fill="#000"/></svg>