<svg width="22" height="26" fill="none" xmlns="http://www.w3.org/2000/svg"><path fill-rule="evenodd" clip-rule="evenodd" d="M12.984 22.415c.25.365.394.803.394 1.274C13.378 24.965 12.313 26 11 26c-1.314 0-2.378-1.035-2.378-2.311 0-.471.145-.91.394-1.274l-5.28-4.05a2.42 2.42 0 01-1.358.413C1.065 18.778 0 17.743 0 16.467c0-1.129.832-2.068 1.932-2.27v-2.393C.832 11.6 0 10.662 0 9.534c0-1.277 1.065-2.312 2.378-2.312.505 0 .973.153 1.358.414l5.28-4.05a2.254 2.254 0 01-.394-1.275C8.622 1.035 9.686 0 11 0c1.313 0 2.378 1.035 2.378 2.311 0 .471-.145.91-.394 1.274l5.28 4.05a2.42 2.42 0 011.358-.413C20.935 7.222 22 8.257 22 9.533c0 1.129-.832 2.068-1.932 2.27v2.393c1.1.203 1.932 1.142 1.932 2.27 0 1.277-1.065 2.312-2.378 2.312-.505 0-.973-.153-1.358-.414l-5.28 4.05zm-2.43-3.678v2.681a2.41 2.41 0 00-.912.373l-5.28-4.05a2.254 2.254 0 00.006-2.54l2.321-1.663L9.01 15.2a2.254 2.254 0 00-.388 1.267c0 1.128.832 2.067 1.932 2.27zm1.804 3.054a2.403 2.403 0 00-.912-.373v-2.68c1.1-.204 1.932-1.143 1.932-2.271a2.26 2.26 0 00-.388-1.267l2.32-1.662 2.322 1.662a2.254 2.254 0 00.005 2.541l-5.28 4.05zM5.938 13L3.74 14.572a2.404 2.404 0 00-.917-.376v-2.392c.336-.062.647-.193.917-.376L5.937 13zm-1.57-2.2l2.321 1.662L9.01 10.8a2.254 2.254 0 01-.388-1.267c0-1.128.832-2.067 1.932-2.27V4.582a2.403 2.403 0 01-.912-.373l-5.28 4.05a2.254 2.254 0 01.006 2.54zm14.808 3.396a2.403 2.403 0 00-.917.376L16.063 13l2.196-1.572c.27.183.58.314.917.376v2.392zM17.637 8.26l-5.28-4.05a2.402 2.402 0 01-.911.373v2.68c1.1.204 1.932 1.143 1.932 2.271 0 .468-.143.903-.388 1.267l2.32 1.662 2.322-1.662a2.254 2.254 0 01.005-2.541zM11 14.156a2.42 2.42 0 00-1.363.416L7.441 13l2.196-1.572c.386.262.856.416 1.363.416s.977-.154 1.363-.416L14.559 13l-2.196 1.572A2.415 2.415 0 0011 14.156zm-.002-3.178c.821 0 1.487-.647 1.487-1.445 0-.797-.666-1.444-1.487-1.444-.82 0-1.486.647-1.486 1.444 0 .798.665 1.445 1.486 1.445zm1.487 5.489c0 .798-.666 1.444-1.487 1.444-.82 0-1.486-.646-1.486-1.444 0-.798.665-1.444 1.486-1.444s1.487.646 1.487 1.444zm7.138-5.49c.821 0 1.487-.646 1.487-1.444 0-.797-.666-1.444-1.487-1.444-.82 0-1.486.647-1.486 1.444 0 .798.665 1.445 1.486 1.445zm1.487 5.49c0 .798-.666 1.444-1.487 1.444-.82 0-1.486-.646-1.486-1.444 0-.798.665-1.444 1.486-1.444s1.487.646 1.487 1.444zm-18.733-5.49c.821 0 1.487-.646 1.487-1.444 0-.797-.666-1.444-1.487-1.444-.82 0-1.486.647-1.486 1.444 0 .798.665 1.445 1.486 1.445zm1.487 5.49c0 .798-.666 1.444-1.487 1.444-.82 0-1.486-.646-1.486-1.444 0-.798.665-1.444 1.486-1.444s1.487.646 1.487 1.444zm7.134 8.666c.821 0 1.487-.647 1.487-1.444 0-.798-.666-1.445-1.487-1.445-.82 0-1.486.647-1.486 1.445 0 .797.665 1.444 1.486 1.444zm1.487-22.822c0 .797-.666 1.444-1.487 1.444-.82 0-1.486-.647-1.486-1.444 0-.798.665-1.445 1.486-1.445s1.487.647 1.487 1.445z" fill="#fff"/></svg>