<svg width="22" height="16" fill="none" xmlns="http://www.w3.org/2000/svg"><path fill-rule="evenodd" clip-rule="evenodd" d="M8.556 11.43V4.571l6.11 3.44-6.11 3.417zM21.78 3.451s-.215-1.568-.874-2.259c-.837-.906-1.775-.91-2.205-.962C15.624 0 11.006 0 11.006 0h-.01S6.378 0 3.3.23c-.431.053-1.369.058-2.206.963-.66.69-.874 2.259-.874 2.259S0 5.292 0 7.132V8.86c0 1.84.22 3.68.22 3.68s.214 1.57.874 2.26c.837.905 1.936.877 2.426.971C5.28 15.946 11 16 11 16s4.622-.007 7.7-.238c.431-.052 1.369-.057 2.206-.963.66-.692.874-2.26.874-2.26S22 10.7 22 8.86V7.132c0-1.84-.22-3.68-.22-3.68z" fill="#000"/></svg>